<?xml version="1.0" encoding="UTF-8"?>
<svg width="32" height="32" version="1.1" viewBox="0 0 32 32" xmlns="http://www.w3.org/2000/svg">
  <!-- Main controller body (white) -->
  <path fill="#ffffff" d="M6 12c-1.1 0-2 .9-2 2v4c0 1.1.9 2 2 2h20c1.1 0 2-.9 2-2v-4c0-1.1-.9-2-2-2h-5l-2 2h-6l-2-2H6z"/>
  <!-- D-pad (transparent with white outline) -->
  <path fill="none" stroke="#ffffff" stroke-width="1" d="M9 14h2v2h2v2h-2v2H9v-2H7v-2h2v-2z"/>
  <!-- Action buttons (transparent with white outline) -->
  <circle fill="none" stroke="#ffffff" cx="21" cy="16" r="1.5"/>
  <circle fill="none" stroke="#ffffff" cx="24" cy="16" r="1.5"/>
  <circle fill="none" stroke="#ffffff" cx="22.5" cy="14" r="1.5"/>
  <circle fill="none" stroke="#ffffff" cx="22.5" cy="18" r="1.5"/>
  <!-- Controller outline -->
  <path fill="none" stroke="#ffffff" stroke-width="1.5" d="M6 12c-1.1 0-2 .9-2 2v4c0 1.1.9 2 2 2h20c1.1 0 2-.9 2-2v-4c0-1.1-.9-2-2-2h-5l-2 2h-6l-2-2H6z"/>
</svg> 